<?xml version="1.0" encoding="utf-8"?>
<!-- Generator: Adobe Illustrator 18.0.0, SVG Export Plug-In . SVG Version: 6.00 Build 0)  -->
<!DOCTYPE svg PUBLIC "-//W3C//DTD SVG 1.1//EN" "http://www.w3.org/Graphics/SVG/1.1/DTD/svg11.dtd">
<svg version="1.1" id="圖層_1" xmlns="http://www.w3.org/2000/svg" xmlns:xlink="http://www.w3.org/1999/xlink" x="0px" y="0px"
	 viewBox="0 0 708.7 708.7" enable-background="new 0 0 708.7 708.7" xml:space="preserve">
<rect x="-44.2" y="-15.1" fill="#F49F50" stroke="#000000" stroke-miterlimit="10" width="756.9" height="737.3"/>
<text transform="matrix(1 0 0 1 154.2612 99.0228)" font-family="'AdobeFangsongStd-Regular-GBpc-EUC-H'" font-size="69.9921">有幾種情況</text>
<text transform="matrix(1 0 0 1 39.0786 176.7957)" font-family="'AdobeFanHeitiStd-Bold-B5pc-H'" font-size="35.996">做報告 v.s. 做報告 </text>
<path fill="#FFFFFF" d="M-99.1,40.5"/>
<text transform="matrix(1 0 0 1 79.9399 215.6234)" font-family="'AdobeFanHeitiStd-Bold-B5pc-H'" font-size="20.9976">雙方能夠有充足的睡眠(</text>
<text transform="matrix(1 0 0 1 296.7158 216.4408)" fill="#E60012" font-family="'BritannicBold'" font-size="27.9968">+2</text>
<text transform="matrix(1 0 0 1 327.6118 216.4408)" font-family="'AdobeFanHeitiStd-Bold-B5pc-H'" font-size="20.9976">)，而且分工</text>
<text transform="matrix(1 0 0 1 79.9399 249.2195)" font-family="'AdobeFanHeitiStd-Bold-B5pc-H'" font-size="20.9976">一半(</text>
<text transform="matrix(1 0 0 1 128.7344 250.0369)" fill="#E60012" font-family="'BritannicBold'" font-size="27.9968">-1</text>
<text transform="matrix(1 0 0 1 152.8315 250.0369)" font-family="'AdobeFanHeitiStd-Bold-B5pc-H'" font-size="20.9976">)，報告成果分一半(</text>
<text transform="matrix(1 0 0 1 334.4111 250.0369)" fill="#E60012" font-family="'BritannicBold'" font-size="27.9968">+2</text>
<text transform="matrix(1 0 0 1 365.3076 250.0369)" font-family="'AdobeFanHeitiStd-Bold-B5pc-H'" font-size="20.9976">)</text>
<text transform="matrix(1 0 0 1 73.9404 382.0486)" font-family="'AdobeFanHeitiStd-Bold-B5pc-H'" font-size="20.9976">做報告不能睡覺(</text>
<text transform="matrix(1 0 0 1 227.7227 382.867)" fill="#E60012" font-family="'BritannicBold'" font-size="27.9968">+0</text>
<text transform="matrix(1 0 0 1 258.6196 382.867)" font-family="'AdobeFanHeitiStd-Bold-B5pc-H'" font-size="20.9976">)，報告都自己做(</text>
<text transform="matrix(1 0 0 1 419.1016 382.867)" fill="#E60012" font-family="'BritannicBold'" font-size="27.9968">-2</text>
<text transform="matrix(1 0 0 1 443.2988 382.867)" font-family="'AdobeFanHeitiStd-Bold-B5pc-H'" font-size="20.9976">)，</text>
<text transform="matrix(1 0 0 1 73.9404 415.6453)" font-family="'AdobeFanHeitiStd-Bold-B5pc-H'" font-size="20.9976">報告成果分一半(</text>
<text transform="matrix(1 0 0 1 227.7227 416.4627)" fill="#E60012" font-family="'BritannicBold'" font-size="27.9968">+2</text>
<text transform="matrix(1 0 0 1 258.6196 416.4627)" font-family="'AdobeFanHeitiStd-Bold-B5pc-H'" font-size="20.9976">)；耍廢的人睡飽飽(</text>
<text transform="matrix(1 0 0 1 440.0986 416.4627)" fill="#E60012" font-family="'BritannicBold'" font-size="27.9968">+2</text>
<text transform="matrix(1 0 0 1 470.9961 416.4627)" font-family="'AdobeFanHeitiStd-Bold-B5pc-H'" font-size="20.9976">)</text>
<text transform="matrix(1 0 0 1 73.9404 449.241)" font-family="'AdobeFanHeitiStd-Bold-B5pc-H'" font-size="20.9976">，報告成果分一半(</text>
<text transform="matrix(1 0 0 1 248.7207 450.0594)" fill="#E60012" font-family="'BritannicBold'" font-size="27.9968">+2</text>
<text transform="matrix(1 0 0 1 279.6177 450.0594)" font-family="'AdobeFanHeitiStd-Bold-B5pc-H'" font-size="20.9976">)</text>
<path id="SVGID_x5F_1_x5F_" fill="none" d="M108.9,649.5h112"/>
<text transform="matrix(1 0 0 1 179.9185 649.4276)" font-family="'ArialMT'" font-size="11.9986"> </text>
<text transform="matrix(1 0 0 1 0 8.145855e-004)" font-family="'ArialMT'" font-size="11.9986"> </text>
<text transform="matrix(1 0 0 1 81.9902 282.9681)" font-family="'AdobeFanHeitiStd-Bold-B5pc-H'" font-size="20.9976">※兩人的滿足值皆為 </text>
<text transform="matrix(1 0 0 1 275.6689 282.9681)" fill="#E60012" font-family="'BritannicBold'" font-size="27.9968">+3</text>
<text transform="matrix(1 0 0 1 37.0786 345.7767)" font-family="'AdobeFanHeitiStd-Bold-B5pc-H'" font-size="35.996">做報告 v.s. 耍廢 </text>
<text transform="matrix(1 0 0 1 73.9404 481.9461)" font-family="'AdobeFanHeitiStd-Bold-B5pc-H'" font-size="20.9976">※兩人的滿足值為 </text>
<text transform="matrix(1 0 0 1 246.6206 481.9461)" fill="#E60012" font-family="'BritannicBold'" font-size="27.9968">+0,+4</text>
<text transform="matrix(1 0 0 1 70.9409 591.451)" font-family="'AdobeFanHeitiStd-Bold-B5pc-H'" font-size="20.9976">不做報告睡飽飽(</text>
<text transform="matrix(1 0 0 1 224.7231 592.2684)" fill="#E60012" font-family="'BritannicBold'" font-size="27.9968">+2</text>
<text transform="matrix(1 0 0 1 255.6196 592.2684)" font-family="'AdobeFanHeitiStd-Bold-B5pc-H'" font-size="20.9976">)，報告不用做(</text>
<text transform="matrix(1 0 0 1 395.1035 592.2684)" fill="#E60012" font-family="'BritannicBold'" font-size="27.9968">-0</text>
<text transform="matrix(1 0 0 1 419.3018 592.2684)" font-family="'AdobeFanHeitiStd-Bold-B5pc-H'" font-size="20.9976">)，沒</text>
<text transform="matrix(1 0 0 1 70.9409 625.0467)" font-family="'AdobeFanHeitiStd-Bold-B5pc-H'" font-size="20.9976">有報告成果(</text>
<text transform="matrix(1 0 0 1 182.728 625.8651)" fill="#E60012" font-family="'BritannicBold'" font-size="27.9968">+0</text>
<text transform="matrix(1 0 0 1 213.6245 625.8651)" font-family="'AdobeFanHeitiStd-Bold-B5pc-H'" font-size="20.9976">)；</text>
<text transform="matrix(1 0 0 1 38.0786 556.1776)" font-family="'AdobeFanHeitiStd-Bold-B5pc-H'" font-size="35.996">耍廢 v.s. 耍廢 </text>
<text transform="matrix(1 0 0 1 70.9409 662.3904)" font-family="'AdobeFanHeitiStd-Bold-B5pc-H'" font-size="20.9976">※兩人的滿足值皆為 </text>
<text transform="matrix(1 0 0 1 264.6187 662.3904)" fill="#E60012" font-family="'BritannicBold'" font-size="27.9968">+2</text>
<g>
	<path fill="#DA4D3C" d="M569.4,248.1c0,22.1-17.9,40.1-40.1,40.1c-22.1,0-40.1-17.9-40.1-40.1c0-16,9.4-29.8,22.9-36.2
		c5.2-2.5,11-3.9,17.2-3.9C551.4,208,569.4,226,569.4,248.1z"/>
	<path fill="#545E7D" d="M546.4,211.9c-27.6,47.6,6.8,63,11.1,64.7c7.3-7.3,11.9-17.3,11.9-28.5C569.4,232.1,560,218.4,546.4,211.9z
		"/>
	<path fill="#545E7D" d="M489.2,248.1c0,11.1,4.5,21.1,11.8,28.4l1.6,0.2c0,0,39-14.2,9.5-64.9C498.6,218.3,489.2,232.1,489.2,248.1
		z"/>
	
		<ellipse transform="matrix(-0.6227 0.7825 -0.7825 -0.6227 1014.1 3.2903)" fill="#FFFFFF" cx="506.3" cy="246.2" rx="7.6" ry="10.5"/>
	
		<ellipse transform="matrix(-0.6227 -0.7825 0.7825 -0.6227 703.255 831.453)" fill="#FFFFFF" cx="552.1" cy="246.2" rx="7.6" ry="10.5"/>
</g>
<g>
	<rect x="545.6" y="202.4" fill="#FFFFFF" width="69.3" height="28.4"/>
	<path fill="#F3D372" d="M607.6,232.4c-2.6,0.3-5.2,0.5-7.7,1l-11.5,2.3c-1.9,0.4-3.6-1-3.6-2.9v-17.1c0-1.5,1.1-2.7,2.5-3
		c0,0,14.1-0.7,21.1-21.5c-7.4-7.3-17.6-11.8-28.8-11.8c-10.8,0-20.5,4.2-27.8,10.9c6.9,21.7,21.4,22.4,21.4,22.4
		c1.5,0.2,2.5,1.5,2.5,3v17.1c0,1.9-1.7,3.3-3.6,2.9l-11.5-2.3c-2.6-0.5-5.1-0.8-7.7-1c-8.6-0.9-12.8-6.3-14.3-13.8
		c0,0.7-0.1,1.4-0.1,2c0,22.7,18.4,41.2,41.2,41.2c22,0,39.9-17.2,41.1-38.9C618.5,228.1,614.5,231.7,607.6,232.4z"/>
	<path fill="#AC7E65" d="M601.2,242.3v12.1c0,0.6,0.6,1,1.1,0.7c3.4-1.7,13.4-9.5,17.5-24.7c0.4-1.4,0.1-1.2-1-0.3l-17.3,11.5
		C601.3,241.8,601.2,242,601.2,242.3z"/>
	<path fill="#AC7E65" d="M558.1,242.3v12.1c0,0.6-0.6,1-1.1,0.7c-3.4-1.7-13.4-9.5-17.5-24.7c-0.4-1.4-0.1-1.2,1-0.3l17.3,11.5
		C558,241.8,558.1,242,558.1,242.3z"/>
	<path fill="#E7BE27" d="M588.8,252h-15.7c-1.1,0-2-0.9-2-2s0.9-2,2-2h15.7c1.1,0,2,0.9,2,2C590.7,251.2,589.8,252,588.8,252z"/>
	<path fill="#E7BE27" d="M580.4,243.4L580.4,243.4c-0.6,0-1.2-0.3-1.6-0.8l-5.1-7c-0.6-0.9-0.4-2.1,0.4-2.7c0.9-0.6,2.1-0.4,2.7,0.4
		l3.6,4.9l3.5-4.6c0.7-0.9,1.9-1,2.7-0.4c0.9,0.7,1,1.9,0.4,2.7l-5.1,6.7C581.6,243.1,581,243.4,580.4,243.4z"/>
	<path fill="#545E7D" d="M573.2,212.8c0,0-24.2-1.2-24.9-47c0,0-26.4,63.5,4.6,66.6c2.6,0.3,5.2,0.5,7.7,1l11.5,2.3
		c1.9,0.4,3.6-1,3.6-2.9v-17.1C575.7,214.3,574.7,213,573.2,212.8z M567.8,224l-3,5L550,215.7l19.9,5L567.8,224z"/>
	<path fill="#545E7D" d="M612.3,165.8c-0.7,45.8-24.9,47-24.9,47c-1.5,0.2-2.5,1.5-2.5,3v17.1c0,1.9,1.7,3.3,3.6,2.9l11.5-2.3
		c2.6-0.5,5.1-0.8,7.7-1C638.7,229.3,612.3,165.8,612.3,165.8z M595.7,228.9l-3-5l-2-3.3l19.9-5L595.7,228.9z"/>
</g>
<g>
	<ellipse fill="#FFFFFF" cx="658.9" cy="156" rx="46.2" ry="30.3"/>
	<g>
		<path fill="#FFFFFF" d="M612.6,199.1c0,0,43.7-3,28.6-33.8"/>
	</g>
</g>
<text transform="matrix(1 0 0 1 624.3574 178.9134)" font-family="'AdobeFanHeitiStd-Bold-B5pc-H'" font-size="17.998">來，認真</text>
<g>
	<path fill="#DA4D3C" d="M581,607.1c0,22.1-17.9,40.1-40.1,40.1c-22.1,0-40.1-17.9-40.1-40.1c0-16,9.4-29.8,22.9-36.2
		c5.2-2.5,11-3.9,17.2-3.9C563.1,567,581,585,581,607.1z"/>
	<path fill="#545E7D" d="M558.1,570.9c-27.6,47.6,6.8,63,11.1,64.7c7.3-7.3,11.9-17.3,11.9-28.5C581,591.1,571.7,577.4,558.1,570.9z
		"/>
	<path fill="#545E7D" d="M500.9,607.1c0,11.1,4.5,21.1,11.8,28.4l1.6,0.2c0,0,39-14.2,9.5-64.9C510.2,577.3,500.9,591.1,500.9,607.1
		z"/>
	
		<ellipse transform="matrix(-0.6227 0.7825 -0.7825 -0.6227 1313.9066 576.5616)" fill="#FFFFFF" cx="517.9" cy="605.1" rx="7.6" ry="10.5"/>
	
		<ellipse transform="matrix(-0.6227 -0.7825 0.7825 -0.6227 441.3351 1423.1368)" fill="#FFFFFF" cx="563.8" cy="605.2" rx="7.6" ry="10.5"/>
</g>
<g>
	<rect x="557.3" y="561.4" fill="#FFFFFF" width="69.3" height="28.4"/>
	<path fill="#F3D372" d="M619.3,591.5c-2.6,0.3-5.2,0.5-7.7,1l-11.5,2.3c-1.9,0.4-3.6-1-3.6-2.9v-17.1c0-1.5,1.1-2.7,2.5-3
		c0,0,14.1-0.7,21.1-21.5c-7.4-7.3-17.6-11.8-28.8-11.8c-10.8,0-20.5,4.2-27.8,10.9c6.9,21.7,21.4,22.4,21.4,22.4
		c1.5,0.2,2.5,1.5,2.5,3v17.1c0,1.9-1.7,3.3-3.6,2.9l-11.5-2.3c-2.6-0.5-5.1-0.8-7.7-1c-8.6-0.9-12.8-6.3-14.3-13.8
		c0,0.7-0.1,1.4-0.1,2c0,22.7,18.4,41.2,41.2,41.2c22,0,39.9-17.2,41.1-38.9C630.2,587.1,626.2,590.8,619.3,591.5z"/>
	<path fill="#AC7E65" d="M612.9,601.3v12.1c0,0.6,0.6,1,1.1,0.7c3.4-1.7,13.4-9.5,17.5-24.7c0.4-1.4,0.1-1.2-1-0.3l-17.3,11.5
		C613,600.8,612.9,601,612.9,601.3z"/>
	<path fill="#AC7E65" d="M569.8,601.3v12.1c0,0.6-0.6,1-1.1,0.7c-3.4-1.7-13.4-9.5-17.5-24.7c-0.4-1.4-0.1-1.2,1-0.3l17.3,11.5
		C569.6,600.8,569.8,601,569.8,601.3z"/>
	<path fill="#E7BE27" d="M600.4,611.1h-15.7c-1.1,0-2-0.9-2-2s0.9-2,2-2h15.7c1.1,0,2,0.9,2,2C602.4,610.2,601.5,611.1,600.4,611.1z
		"/>
	<path fill="#E7BE27" d="M592.1,602.4L592.1,602.4c-0.6,0-1.2-0.3-1.6-0.8l-5.1-7c-0.6-0.9-0.4-2.1,0.4-2.7c0.9-0.6,2.1-0.4,2.7,0.4
		l3.6,4.9l3.5-4.6c0.7-0.9,1.9-1,2.7-0.4c0.8,0.6,1,1.9,0.4,2.7l-5.1,6.7C593.3,602.1,592.7,602.4,592.1,602.4z"/>
	<path fill="#545E7D" d="M584.9,571.8c0,0-24.2-1.2-24.9-47c0,0-26.4,63.5,4.6,66.6c2.6,0.3,5.2,0.5,7.7,1l11.5,2.3
		c1.9,0.4,3.6-1,3.6-2.9v-17.1C587.4,573.3,586.3,572,584.9,571.8z M579.5,583l-3,5l-14.9-13.2l19.9,5L579.5,583z"/>
	<path fill="#545E7D" d="M624,524.8c-0.7,45.8-24.9,47-24.9,47c-1.5,0.2-2.5,1.5-2.5,3v17.1c0,1.9,1.7,3.3,3.6,2.9l11.5-2.3
		c2.6-0.5,5.1-0.8,7.7-1C650.4,588.3,624,524.8,624,524.8z M607.4,588l-3-5l-2-3.3l19.9-5L607.4,588z"/>
</g>
<g>
	<g>
		<ellipse fill="#FFFFFF" cx="654.5" cy="515.5" rx="46.4" ry="30.4"/>
		<g>
			<path fill="#FFFFFF" d="M608.1,558.8c0,0,43.9-3,28.7-33.9"/>
		</g>
	</g>
	<text transform="matrix(1 0 0 1 618.7773 523.534)" font-family="'AdobeFanHeitiStd-Bold-B5pc-H'" font-size="17.998">普累普累</text>
</g>
<g>
	<path fill="#DA4D3C" d="M574.6,384.8c0,22.1-17.9,40.1-40.1,40.1c-22.1,0-40.1-17.9-40.1-40.1c0-16,9.4-29.8,22.9-36.2
		c5.2-2.5,11-3.9,17.2-3.9C556.6,344.7,574.6,362.7,574.6,384.8z"/>
	<path fill="#545E7D" d="M551.7,348.6c-27.6,47.6,6.8,63,11.1,64.7c7.3-7.3,11.9-17.3,11.9-28.5
		C574.6,368.8,565.2,355.1,551.7,348.6z"/>
	<path fill="#545E7D" d="M494.4,384.8c0,11.1,4.5,21.1,11.8,28.4l1.6,0.2c0,0,39-14.2,9.5-64.9C503.8,355,494.4,368.8,494.4,384.8z"
		/>
	
		<ellipse transform="matrix(-0.6227 0.7825 -0.7825 -0.6227 1129.5291 221.0761)" fill="#FFFFFF" cx="511.5" cy="382.9" rx="7.6" ry="10.5"/>
	
		<ellipse transform="matrix(-0.6227 -0.7825 0.7825 -0.6227 604.8359 1057.3756)" fill="#FFFFFF" cx="557.4" cy="382.9" rx="7.6" ry="10.5"/>
</g>
<g>
	<g>
		<ellipse fill="#FFFFFF" cx="600.2" cy="318.1" rx="46.4" ry="30.4"/>
		<g>
			<path fill="#FFFFFF" d="M553.8,361.4c0,0,43.9-3,28.7-33.9"/>
		</g>
	</g>
	<text transform="matrix(1 0 0 1 564.5332 326.2064)" font-family="'AdobeFanHeitiStd-Bold-B5pc-H'" font-size="17.998">普累普累</text>
</g>
<g>
	<rect x="556.1" y="425.1" fill="#FFFFFF" width="69.3" height="28.4"/>
	<path fill="#F3D372" d="M618.2,455.1c-2.6,0.3-5.2,0.5-7.7,1l-11.5,2.3c-1.9,0.4-3.6-1-3.6-2.9v-17.1c0-1.5,1.1-2.7,2.5-3
		c0,0,14.1-0.7,21.1-21.5c-7.4-7.3-17.6-11.8-28.8-11.8c-10.8,0-20.5,4.2-27.8,10.9c6.9,21.7,21.4,22.4,21.4,22.4
		c1.5,0.2,2.5,1.5,2.5,3v17.1c0,1.9-1.7,3.3-3.6,2.9l-11.5-2.3c-2.6-0.5-5.1-0.8-7.7-1c-8.6-0.9-12.8-6.3-14.3-13.8
		c0,0.7-0.1,1.4-0.1,2c0,22.7,18.4,41.2,41.2,41.2c22,0,39.9-17.2,41.1-38.9C629.1,450.8,625,454.4,618.2,455.1z"/>
	<path fill="#AC7E65" d="M611.7,464.9V477c0,0.6,0.6,1,1.1,0.7c3.4-1.7,13.4-9.5,17.5-24.7c0.4-1.4,0.1-1.2-1-0.3L612,464.2
		C611.9,464.4,611.7,464.7,611.7,464.9z"/>
	<path fill="#AC7E65" d="M568.6,464.9V477c0,0.6-0.6,1-1.1,0.7c-3.4-1.7-13.4-9.5-17.5-24.7c-0.4-1.4-0.1-1.2,1-0.3l17.3,11.5
		C568.5,464.4,568.6,464.7,568.6,464.9z"/>
	<path fill="#E7BE27" d="M599.3,474.7h-15.7c-1.1,0-2-0.9-2-2s0.9-2,2-2h15.7c1.1,0,2,0.9,2,2C601.3,473.8,600.4,474.7,599.3,474.7z
		"/>
	<path fill="#E7BE27" d="M590.9,466L590.9,466c-0.6,0-1.2-0.3-1.6-0.8l-5.1-7c-0.6-0.9-0.4-2.1,0.4-2.7c0.9-0.6,2.1-0.4,2.7,0.4
		l3.6,4.9l3.5-4.6c0.7-0.9,1.9-1,2.7-0.4c0.9,0.7,1,1.9,0.4,2.7l-5.1,6.7C592.1,465.7,591.6,466,590.9,466z"/>
	<path fill="#545E7D" d="M583.7,435.5c0,0-24.2-1.2-24.9-47c0,0-26.4,63.5,4.6,66.6c2.6,0.3,5.2,0.5,7.7,1l11.5,2.3
		c1.9,0.4,3.6-1,3.6-2.9v-17.1C586.3,436.9,585.2,435.7,583.7,435.5z M578.4,446.7l-3,5l-14.9-13.2l19.9,5L578.4,446.7z"/>
	<path fill="#545E7D" d="M622.8,388.4c-0.7,45.8-24.9,47-24.9,47c-1.5,0.2-2.5,1.5-2.5,3v17.1c0,1.9,1.7,3.3,3.6,2.9l11.5-2.3
		c2.6-0.5,5.1-0.8,7.7-1C649.3,452,622.8,388.4,622.8,388.4z M606.2,451.6l-3-5l-2-3.3l19.9-5L606.2,451.6z"/>
</g>
<g>
	<g>
		<ellipse fill="#FFFFFF" cx="653.4" cy="379.6" rx="46.2" ry="30.3"/>
		<g>
			<path fill="#FFFFFF" d="M607.2,422.8c0,0,43.7-3,28.6-33.8"/>
		</g>
	</g>
	<text transform="matrix(1 0 0 1 616.8896 384.5486)" font-family="'AdobeFanHeitiStd-Bold-B5pc-H'" font-size="17.998">來，認真</text>
</g>
</svg>
