<?xml version="1.0" encoding="utf-8"?>
<!-- Generator: Adobe Illustrator 18.0.0, SVG Export Plug-In . SVG Version: 6.00 Build 0)  -->
<!DOCTYPE svg PUBLIC "-//W3C//DTD SVG 1.1//EN" "http://www.w3.org/Graphics/SVG/1.1/DTD/svg11.dtd">
<svg version="1.1" id="圖層_1" xmlns="http://www.w3.org/2000/svg" xmlns:xlink="http://www.w3.org/1999/xlink" x="0px" y="0px"
	 viewBox="0 0 708.7 708.7" enable-background="new 0 0 708.7 708.7" xml:space="preserve">
<rect x="-24.1" y="-28.6" fill="#F49F50" stroke="#000000" stroke-miterlimit="10" width="756.9" height="737.3"/>
<text transform="matrix(1 0 0 1 174.3198 101.5633)" font-family="'AdobeFangsongStd-Regular-GBpc-EUC-H'" font-size="69.996">你可以選擇：</text>
<g>
	<path fill="#DA4D3C" d="M602.8,235.4c0,22.1-17.9,40.1-40.1,40.1c-22.2,0-40.1-17.9-40.1-40.1c0-16,9.4-29.8,22.9-36.2
		c5.2-2.5,11-3.9,17.2-3.9C584.9,195.3,602.8,213.2,602.8,235.4z"/>
	<path fill="#545E7D" d="M579.9,199.2c-27.6,47.6,6.8,63,11.1,64.7c7.3-7.3,11.9-17.3,11.9-28.5
		C602.8,219.4,593.5,205.6,579.9,199.2z"/>
	<path fill="#545E7D" d="M522.7,235.4c0,11.1,4.5,21.1,11.8,28.4l1.6,0.2c0,0,39-14.2,9.5-64.9C532,205.6,522.7,219.4,522.7,235.4z"
		/>
	
		<ellipse transform="matrix(-0.7825 -0.6227 0.6227 -0.7825 816.8131 752.2791)" fill="#FFFFFF" cx="539.8" cy="233.5" rx="10.5" ry="7.6"/>
	
		<ellipse transform="matrix(0.7825 -0.6227 0.6227 0.7825 -18.0139 415.4039)" fill="#FFFFFF" cx="585.6" cy="233.5" rx="10.5" ry="7.6"/>
</g>
<g>
	<g>
		<ellipse fill="#FFFFFF" cx="633.7" cy="167.1" rx="48.3" ry="31.6"/>
		<g>
			<path id="SVGID_x5F_1_x5F_" fill="none" d="M585.4,212.1c0,0,45.7-3.2,29.9-35.3"/>
			<text transform="matrix(1 0 0 1 0 3.262870e-004)" font-family="'ArialMT'" font-size="11.9993">   </text>
			<text transform="matrix(1 0 0 1 617.0313 180.8284)" font-family="'ArialMT'" font-size="11.9993"> </text>
			<text transform="matrix(1 0 0 1 0 3.262870e-004)" font-family="'ArialMT'" font-size="11.9993"> </text>
		</g>
	</g>
	<text transform="matrix(1 0 0 1 608.1708 172.7972)" font-family="'AdobeFanHeitiStd-Bold-B5pc-H'" font-size="23.9986">Zzzzz</text>
</g>
<text transform="matrix(1 0 0 1 83.7251 204.3387)" font-family="'AdobeFanHeitiStd-Bold-B5pc-H'" font-size="49.9972">睡覺 </text>
<path fill="#FFFFFF" d="M-79,27"/>
<text transform="matrix(1 0 0 1 79.7256 369.2664)" font-family="'AdobeFanHeitiStd-Bold-B5pc-H'" font-size="49.9972">做報告 </text>
<text transform="matrix(1 0 0 1 81.3252 535.9647)" font-family="'AdobeFanHeitiStd-Bold-B5pc-H'" font-size="49.9972">耍廢</text>
<text transform="matrix(1 0 0 1 118.9932 247.1688)" font-family="'AdobeFanHeitiStd-Bold-B5pc-H'" font-size="20.9988">在兩人合作的情況下，可以正常睡覺</text>
<text transform="matrix(1 0 0 1 118.9932 280.7669)" font-family="'AdobeFanHeitiStd-Bold-B5pc-H'" font-size="20.9988">滿足值為 </text>
<text transform="matrix(1 0 0 1 207.688 281.5848)" fill="#E60012" font-family="'BritannicBold'" font-size="27.9984">+2</text>
<text transform="matrix(1 0 0 1 114.6831 407.9061)" font-family="'AdobeFanHeitiStd-Bold-B5pc-H'" font-size="20.9988">做報告總共需要花費 </text>
<text transform="matrix(1 0 0 1 308.3721 408.7235)" fill="#E60012" font-family="'BritannicBold'" font-size="27.9984">-2</text>
<text transform="matrix(1 0 0 1 332.5708 408.7235)" font-family="'AdobeFanHeitiStd-Bold-B5pc-H'" font-size="20.9988"> 的精力，但報</text>
<text transform="matrix(1 0 0 1 115.9932 436.158)" font-family="'AdobeFanHeitiStd-Bold-B5pc-H'" font-size="20.9988">告成績的滿足值為 </text>
<text transform="matrix(1 0 0 1 288.6836 436.9754)" fill="#E60012" font-family="'BritannicBold'" font-size="27.9984">+4</text>
<text transform="matrix(1 0 0 1 115.9932 567.1502)" font-family="'AdobeFanHeitiStd-Bold-B5pc-H'" font-size="20.9988">啥都不做，純耍廢，像個跟我一樣的宅</text>
<text transform="matrix(1 0 0 1 115.9932 592.3494)" font-family="'AdobeFanHeitiStd-Bold-B5pc-H'" font-size="20.9988">宅</text>
<text transform="matrix(1 0 0 1 136.9922 592.3494)" fill="#727171" font-family="'AdobeFanHeitiStd-Bold-B5pc-H'" font-size="20.9988" text-decoration=" line-through">謀郎愛瓦</text>
<text transform="matrix(1 0 0 1 220.9873 593.1668)" font-family="'AdobeFanHeitiStd-Bold-B5pc-H'" font-size="20.9988">QQ</text>
<path id="SVGID_x5F_2_x5F_" fill="none" d="M129,636h112"/>
<text transform="matrix(1 0 0 1 200.0278 635.9647)" font-family="'ArialMT'" font-size="11.9993"> </text>
<text transform="matrix(1 0 0 1 0 3.262870e-004)" font-family="'ArialMT'" font-size="11.9993"> </text>
<g>
	<rect x="530.1" y="387.6" fill="#FFFFFF" width="69.3" height="28.4"/>
	<path fill="#F3D372" d="M592.1,417.6c-2.6,0.3-5.2,0.5-7.7,1l-11.5,2.3c-1.9,0.4-3.6-1-3.6-2.9v-17.1c0-1.5,1.1-2.7,2.5-3
		c0,0,14.1-0.7,21.1-21.5c-7.4-7.3-17.6-11.8-28.8-11.8c-10.8,0-20.5,4.2-27.8,10.9c6.9,21.7,21.4,22.4,21.4,22.4
		c1.5,0.2,2.5,1.5,2.5,3V418c0,1.9-1.7,3.3-3.6,2.9l-11.5-2.3c-2.6-0.5-5.1-0.8-7.7-1c-8.6-0.9-12.8-6.3-14.3-13.8
		c0,0.7-0.1,1.4-0.1,2c0,22.7,18.4,41.2,41.2,41.2c22,0,39.9-17.2,41.1-38.9C603,413.3,599,416.9,592.1,417.6z"/>
	<path fill="#AC7E65" d="M585.7,427.5v12.1c0,0.6,0.6,1,1.1,0.7c3.4-1.7,13.4-9.5,17.5-24.7c0.4-1.4,0.1-1.2-1-0.3L586,426.8
		C585.8,427,585.7,427.2,585.7,427.5z"/>
	<path fill="#AC7E65" d="M542.6,427.5v12.1c0,0.6-0.6,1-1.1,0.7c-3.4-1.7-13.4-9.5-17.5-24.7c-0.4-1.4-0.1-1.2,1-0.3l17.3,11.5
		C542.4,427,542.6,427.2,542.6,427.5z"/>
	<path fill="#E7BE27" d="M573.2,437.2h-15.7c-1.1,0-2-0.9-2-2s0.9-2,2-2h15.7c1.1,0,2,0.9,2,2C575.2,436.3,574.3,437.2,573.2,437.2z
		"/>
	<path fill="#E7BE27" d="M564.9,428.6L564.9,428.6c-0.6,0-1.2-0.3-1.6-0.8l-5.1-7c-0.6-0.9-0.4-2.1,0.4-2.7c0.9-0.6,2.1-0.4,2.7,0.4
		l3.6,4.9l3.5-4.6c0.7-0.9,1.9-1,2.7-0.4c0.8,0.6,1,1.9,0.4,2.7l-5.1,6.7C566.1,428.3,565.5,428.6,564.9,428.6z"/>
	<path fill="#545E7D" d="M557.7,398c0,0-24.2-1.2-24.9-47c0,0-26.4,63.5,4.6,66.6c2.6,0.3,5.2,0.5,7.7,1l11.5,2.3
		c1.9,0.4,3.6-1,3.6-2.9v-17.1C560.2,399.5,559.1,398.2,557.7,398z M552.3,409.2l-3,5L534.4,401l19.9,5L552.3,409.2z"/>
	<path fill="#545E7D" d="M596.8,351c-0.7,45.8-24.9,47-24.9,47c-1.5,0.2-2.5,1.5-2.5,3v17c0,1.9,1.7,3.3,3.6,2.9l11.5-2.3
		c2.6-0.5,5.1-0.8,7.7-1C623.2,414.5,596.8,351,596.8,351z M580.2,414.1l-3-5l-2-3.3l19.9-5L580.2,414.1z"/>
</g>
<g>
	<ellipse fill="#FFFFFF" cx="643.4" cy="341.2" rx="46.2" ry="30.3"/>
	<g>
		<path fill="#FFFFFF" d="M597.1,384.3c0,0,43.7-3,28.6-33.8"/>
	</g>
</g>
<text transform="matrix(1 0 0 1 608.8643 349.1077)" font-family="'AdobeFanHeitiStd-Bold-B5pc-H'" font-size="17.999">來，認真</text>
<g>
	<path fill="#DA4D3C" d="M605.8,568c0,22.1-17.9,40.1-40.1,40.1c-22.1,0-40.1-17.9-40.1-40.1c0-16,9.4-29.8,22.9-36.2
		c5.2-2.5,11-3.9,17.2-3.9C587.9,527.9,605.8,545.9,605.8,568z"/>
	<path fill="#545E7D" d="M582.9,531.8c-27.6,47.6,6.8,63,11.1,64.7c7.3-7.3,11.9-17.3,11.9-28.5C605.8,552,596.5,538.2,582.9,531.8z
		"/>
	<path fill="#545E7D" d="M525.7,568c0,11.1,4.5,21.1,11.8,28.4l1.6,0.2c0,0,39-14.2,9.5-64.9C535,538.2,525.7,552,525.7,568z"/>
	
		<ellipse transform="matrix(-0.7825 -0.6227 0.6227 -0.7825 615.0505 1346.9825)" fill="#FFFFFF" cx="542.8" cy="566.1" rx="10.5" ry="7.6"/>
	
		<ellipse transform="matrix(0.7825 -0.6227 0.6227 0.7825 -224.4608 489.6224)" fill="#FFFFFF" cx="588.6" cy="566.1" rx="10.5" ry="7.6"/>
</g>
<g>
	<g>
		<ellipse fill="#FFFFFF" cx="641.5" cy="510" rx="46.4" ry="30.4"/>
		<g>
			<path fill="#FFFFFF" d="M595.1,553.3c0,0,43.9-3,28.7-33.9"/>
		</g>
	</g>
	<text transform="matrix(1 0 0 1 605.8643 518.0984)" font-family="'AdobeFanHeitiStd-Bold-B5pc-H'" font-size="17.999">普累普累</text>
</g>
</svg>
