<?xml version="1.0" encoding="utf-8"?>
<!-- Generator: Adobe Illustrator 18.0.0, SVG Export Plug-In . SVG Version: 6.00 Build 0)  -->
<!DOCTYPE svg PUBLIC "-//W3C//DTD SVG 1.1//EN" "http://www.w3.org/Graphics/SVG/1.1/DTD/svg11.dtd">
<svg version="1.1" id="圖層_1" xmlns="http://www.w3.org/2000/svg" xmlns:xlink="http://www.w3.org/1999/xlink" x="0px" y="0px"
	 viewBox="0 0 708.7 708.7" enable-background="new 0 0 708.7 708.7" xml:space="preserve">
<g id="圖層_2_1_" display="none">
	<rect x="-105" y="-51.3" display="inline" fill="#FFFFFF" stroke="#000000" stroke-miterlimit="10" width="868" height="816"/>
</g>
<rect x="-75.4" y="-14.3" fill="#F49F50" stroke="#000000" stroke-miterlimit="10" width="798" height="737.3"/>
<text transform="matrix(1 0 0 1 144.3135 81.8514)" font-family="'AdobeFangsongStd-Regular-GBpc-EUC-H'" font-size="59.9932">耍廢博奕開張！</text>
<path fill="#FFFFFF" d="M-75.4,40.3"/>
<path id="SVGID_x5F_1_x5F_" fill="none" d="M23.6,491.5h117.8"/>
<text transform="matrix(1 0 0 1 0 8.145855e-004)" font-family="'ArialMT'" font-size="11.9986"> </text>
<text transform="matrix(1 0 0 1 98.3066 491.4451)" font-family="'ArialMT'" font-size="11.9986"> </text>
<text transform="matrix(1 0 0 1 101.6401 491.4451)" font-family="'ArialMT'" font-size="11.9986"> </text>
<text transform="matrix(1 0 0 1 0 8.145855e-004)" font-family="'ArialMT'" font-size="11.9986"> </text>
<g>
	<rect x="129.5" y="157.9" fill="#FFFFFF" width="480.2" height="382.9"/>
	<rect x="144.1" y="163.6" fill="#F39F6B" width="219.8" height="182.5"/>
	<rect x="375" y="163.6" fill="#F39F6B" width="219.8" height="182.5"/>
	<rect x="144.2" y="354.3" fill="#F39F6B" width="219.8" height="182.5"/>
	<rect x="375.1" y="354.3" fill="#F39F6B" width="219.8" height="182.5"/>
</g>
<rect x="65.9" y="181.3" fill="#C7E5DF" width="104" height="39.7"/>
<text transform="matrix(1 0 0 1 74.3354 212.89)" font-family="'AdobeFanHeitiStd-Bold-B5pc-H'" font-size="30.1853">做報告</text>
<text transform="matrix(1 0 0 1 205.0352 465.9481)" font-family="'AdobeFanHeitiStd-Bold-B5pc-H'" font-size="47.9946">(</text>
<text transform="matrix(1 0 0 1 220.5332 465.9481)" fill="#FFFFFF" font-family="'AdobeFanHeitiStd-Bold-B5pc-H'" font-size="47.9946">4,</text>
<text transform="matrix(1 0 0 1 259.3291 465.9481)" enable-background="new    "><tspan x="0" y="0" fill="#E83612" font-family="'AdobeFanHeitiStd-Bold-B5pc-H'" font-size="47.9946">0</tspan><tspan x="27" y="0" fill="#231815" font-family="'AdobeFanHeitiStd-Bold-B5pc-H'" font-size="47.9946">)</tspan></text>
<rect x="203.9" y="139.3" fill="#C7E5DF" width="104" height="39.7"/>
<text transform="matrix(1 0 0 1 212.3198 170.8948)" font-family="'AdobeFanHeitiStd-Bold-B5pc-H'" font-size="30.1853">做報告</text>
<rect x="436.9" y="139.3" fill="#C7E5DF" width="104" height="39.7"/>
<text transform="matrix(1 0 0 1 459.292 170.8948)" font-family="'AdobeFanHeitiStd-Bold-B5pc-H'" font-size="30.1853">耍廢</text>
<rect x="69.4" y="371.3" fill="#C7E5DF" width="104" height="39.7"/>
<text transform="matrix(1 0 0 1 91.8271 402.868)" font-family="'AdobeFanHeitiStd-Bold-B5pc-H'" font-size="30.1853">耍廢</text>
<text transform="matrix(1 0 0 1 209.0352 268.8387)" font-family="'AdobeFanHeitiStd-Bold-B5pc-H'" font-size="47.9946">(</text>
<text transform="matrix(1 0 0 1 224.5332 268.8387)" fill="#FFFFFF" font-family="'AdobeFanHeitiStd-Bold-B5pc-H'" font-size="47.9946">3,3</text>
<text transform="matrix(1 0 0 1 290.3257 268.8387)" font-family="'AdobeFanHeitiStd-Bold-B5pc-H'" font-size="47.9946">)</text>
<text transform="matrix(1 0 0 1 432.0098 268.9705)" font-family="'AdobeFanHeitiStd-Bold-B5pc-H'" font-size="47.9946"> ( </text>
<text transform="matrix(1 0 0 1 447.5078 268.9705)" fill="#E83612" font-family="'AdobeFanHeitiStd-Bold-B5pc-H'" font-size="47.9946"> 0</text>
<text transform="matrix(1 0 0 1 490.9033 268.9705)" fill="#FFFFFF" font-family="'AdobeFanHeitiStd-Bold-B5pc-H'" font-size="47.9946">,4</text>
<text transform="matrix(1 0 0 1 529.6982 268.9705)" font-family="'AdobeFanHeitiStd-Bold-B5pc-H'" font-size="47.9946">)</text>
<text transform="matrix(1 0 0 1 439.0088 464.949)" font-family="'AdobeFanHeitiStd-Bold-B5pc-H'" font-size="47.9946">(2,2)</text>
<g>
	<polygon points="384.3,421.2 420.4,448.7 384.3,476.1 	"/>
	<rect x="329.9" y="437.4" width="60.5" height="23"/>
</g>
<g>
	<polygon fill="#E43C10" points="383.4,231.2 419.4,258.7 383.4,286.2 	"/>
	<rect x="328.9" y="247.4" fill="#E43C10" width="60.5" height="23"/>
</g>
<g>
	<polygon points="516.4,369.9 488.9,405.9 461.4,369.9 	"/>
	<rect x="477.2" y="315.5" width="23" height="60.5"/>
</g>
<g>
	<polygon fill="#E94A19" points="287.8,369.9 260.3,405.9 232.9,369.9 	"/>
	<rect x="248.6" y="315.5" fill="#E94A19" width="23" height="60.5"/>
</g>
<g>
	<rect x="339.4" y="138.5" fill="#FFFFFF" width="69.3" height="28.4"/>
	<path fill="#F3D372" d="M401.5,168.5c-2.6,0.3-5.2,0.5-7.7,1l-11.5,2.3c-1.9,0.4-3.6-1-3.6-2.9v-17.1c0-1.5,1.1-2.7,2.5-3
		c0,0,14.1-0.7,21.1-21.5c-7.4-7.3-17.6-11.8-28.8-11.8c-10.8,0-20.5,4.2-27.8,10.9c6.9,21.7,21.4,22.4,21.4,22.4
		c1.5,0.2,2.5,1.5,2.5,3v17.1c0,1.9-1.7,3.3-3.6,2.9l-11.5-2.3c-2.6-0.5-5.1-0.8-7.7-1c-8.6-0.9-12.8-6.3-14.3-13.8
		c0,0.7-0.1,1.4-0.1,2c0,22.7,18.4,41.2,41.2,41.2c22,0,39.9-17.2,41.1-38.9C412.4,164.2,408.3,167.8,401.5,168.5z"/>
	<path fill="#AC7E65" d="M395.1,178.3v12.1c0,0.6,0.6,1,1.1,0.7c3.4-1.7,13.4-9.5,17.5-24.7c0.4-1.4,0.1-1.2-1-0.3l-17.3,11.5
		C395.2,177.8,395.1,178.1,395.1,178.3z"/>
	<path fill="#AC7E65" d="M351.9,178.3v12.1c0,0.6-0.6,1-1.1,0.7c-3.4-1.7-13.4-9.5-17.5-24.7c-0.4-1.4-0.1-1.2,1-0.3l17.3,11.5
		C351.8,177.8,351.9,178.1,351.9,178.3z"/>
	<path fill="#E7BE27" d="M382.6,188.1h-15.7c-1.1,0-2-0.9-2-2s0.9-2,2-2h15.7c1.1,0,2,0.9,2,2C384.6,187.2,383.7,188.1,382.6,188.1z
		"/>
	<path fill="#E7BE27" d="M374.3,179.4L374.3,179.4c-0.6,0-1.2-0.3-1.6-0.8l-5.1-7c-0.6-0.9-0.4-2.1,0.4-2.7c0.9-0.6,2.1-0.4,2.7,0.4
		l3.6,4.9l3.5-4.6c0.7-0.9,1.9-1,2.7-0.4c0.9,0.7,1,1.9,0.4,2.7l-5.1,6.7C375.4,179.1,374.9,179.4,374.3,179.4z"/>
	<path fill="#545E7D" d="M367.1,148.9c0,0-24.2-1.2-24.9-47c0,0-26.4,63.5,4.6,66.6c2.6,0.3,5.2,0.5,7.7,1l11.5,2.3
		c1.9,0.4,3.6-1,3.6-2.9v-17.1C369.6,150.3,368.5,149.1,367.1,148.9z M361.7,160.1l-3,5l-14.9-13.2l19.9,5L361.7,160.1z"/>
	<path fill="#545E7D" d="M406.1,101.8c-0.7,45.8-24.9,47-24.9,47c-1.5,0.2-2.5,1.5-2.5,3v17.1c0,1.9,1.7,3.3,3.6,2.9l11.5-2.3
		c2.6-0.5,5.1-0.8,7.7-1C432.6,165.4,406.1,101.8,406.1,101.8z M389.5,165l-3-5l-2-3.3l19.9-5L389.5,165z"/>
</g>
<g>
	<path fill="#DA4D3C" d="M169.6,296.3c0,22.1-17.9,40.1-40.1,40.1s-40.1-17.9-40.1-40.1c0-16,9.4-29.8,22.9-36.2
		c5.2-2.5,11-3.9,17.2-3.9C151.6,256.2,169.6,274.2,169.6,296.3z"/>
	<path fill="#545E7D" d="M146.7,260.1c-27.6,47.6,6.8,63,11.1,64.7c7.3-7.3,11.9-17.3,11.9-28.5
		C169.6,280.3,160.2,266.6,146.7,260.1z"/>
	<path fill="#545E7D" d="M89.4,296.3c0,11.1,4.5,21.1,11.8,28.4l1.6,0.2c0,0,39-14.2,9.5-64.9C98.8,266.5,89.4,280.3,89.4,296.3z"/>
	
		<ellipse transform="matrix(-0.6227 0.7825 -0.7825 -0.6227 403.1794 394.4541)" fill="#FFFFFF" cx="106.5" cy="294.4" rx="7.6" ry="10.5"/>
	
		<ellipse transform="matrix(-0.6227 -0.7825 0.7825 -0.6227 16.9123 596.9305)" fill="#FFFFFF" cx="152.4" cy="294.4" rx="7.6" ry="10.5"/>
</g>
<text transform="matrix(1 0 0 1 40.3252 603.0359)" font-family="'AdobeFanHeitiStd-Bold-B5pc-H'" font-size="29.9966">無論對手要不要做報告，耍廢的效益都比較高！</text>
<text transform="matrix(1 0 0 1 160.3115 639.0311)" font-family="'AdobeFanHeitiStd-Bold-B5pc-H'" font-size="29.9966">所以兩個人都會開始耍廢！！</text>
<text transform="matrix(1 0 0 1 222.186 672.9256)" fill="#4E401C" font-family="'AdobeFanHeitiStd-Bold-B5pc-H'" font-size="17.998" text-decoration=" line-through">所以大家可以開始耍廢惹, ya!!!!O3O</text>
<g id="圖層_2">
</g>
</svg>
