<?xml version="1.0" encoding="utf-8"?>
<!-- Generator: Adobe Illustrator 18.0.0, SVG Export Plug-In . SVG Version: 6.00 Build 0)  -->
<!DOCTYPE svg PUBLIC "-//W3C//DTD SVG 1.1//EN" "http://www.w3.org/Graphics/SVG/1.1/DTD/svg11.dtd">
<svg version="1.1" xmlns="http://www.w3.org/2000/svg" xmlns:xlink="http://www.w3.org/1999/xlink" x="0px" y="0px"
	 viewBox="0 0 708.7 708.7" enable-background="new 0 0 708.7 708.7" xml:space="preserve">
<g id="圖層_1">
	<rect x="-31.2" y="-10.3" fill="#F49F50" stroke="#000000" stroke-miterlimit="10" width="756.9" height="737.3"/>
</g>
<g id="圖層_3">
	<text transform="matrix(1 0 0 1 147.4207 95.5687)" font-family="'AdobeFangsongStd-Regular-GBpc-EUC-H'" font-size="60">X戰警:分組報告</text>
	<text transform="matrix(1 0 0 1 39.3301 214.4952)"><tspan x="0" y="0" font-family="'AdobeFangsongStd-Regular-GBpc-EUC-H'" font-size="30">在通識課上，死氏和金氏兩組被老師隨機分組作</tspan><tspan x="0" y="36" font-family="'AdobeFangsongStd-Regular-GBpc-EUC-H'" font-size="30">一份期末報告，最後期末成績依照報告分數平分。</tspan><tspan x="0" y="108" font-family="'AdobeFangsongStd-Regular-GBpc-EUC-H'" font-size="30">              但兩人心中各自打著如意算盤...</tspan></text>
</g>
<g id="圖層_5" display="none">
	<rect x="-16.7" y="-15.8" display="inline" fill="#90C97A" width="738.6" height="729.4"/>
</g>
<g id="圖層_4">
	<g>
		<rect x="147.2" y="458.3" fill="#FFFFFF" width="124.9" height="51.2"/>
		<path fill="#F3D372" d="M259,512.4c-4.7,0.5-9.3,1-13.9,1.9l-20.7,4.1c-3.3,0.7-6.5-1.9-6.5-5.3v-30.8c0-2.7,1.9-4.9,4.5-5.3
			c0,0,25.4-1.3,38-38.7c-13.4-13.1-31.7-21.3-51.9-21.3c-19.4,0-37,7.5-50.2,19.7c12.4,39,38.6,40.3,38.6,40.3
			c2.6,0.4,4.5,2.7,4.5,5.3v30.8c0,3.4-3.1,6-6.5,5.3l-20.7-4.1c-4.6-0.9-9.3-1.4-13.9-1.9c-15.5-1.6-23-11.4-25.8-24.9
			c-0.1,1.2-0.2,2.4-0.2,3.7c0,41,33.2,74.2,74.2,74.2c39.6,0,71.9-31.1,74-70.2C278.6,504.6,271.3,511.1,259,512.4z"/>
		<path fill="#AC7E65" d="M247.4,530.1v21.7c0,1.1,1.1,1.8,2.1,1.3c6.1-3,24.1-17,31.6-44.5c0.7-2.5,0.2-2.1-1.8-0.5L248,529
			C247.6,529.2,247.4,529.7,247.4,530.1z"/>
		<path fill="#AC7E65" d="M169.7,530.1v21.7c0,1.1-1.1,1.8-2.1,1.3c-6.1-3-24.1-17-31.6-44.5c-0.7-2.5-0.2-2.1,1.8-0.5l31.2,20.8
			C169.5,529.2,169.7,529.7,169.7,530.1z"/>
		<path fill="#E7BE27" d="M225,547.7h-28.3c-2,0-3.5-1.6-3.5-3.5s1.6-3.5,3.5-3.5H225c2,0,3.5,1.6,3.5,3.5S226.9,547.7,225,547.7z"
			/>
		<path fill="#E7BE27" d="M209.9,532.1C209.9,532.1,209.9,532.1,209.9,532.1c-1.2,0-2.2-0.6-2.9-1.5l-9.2-12.7
			c-1.2-1.6-0.8-3.8,0.8-4.9c1.6-1.2,3.8-0.8,4.9,0.8l6.4,8.8l6.4-8.3c1.2-1.5,3.4-1.8,4.9-0.7c1.5,1.2,1.8,3.4,0.7,4.9l-9.2,12
			C212.1,531.6,211,532.1,209.9,532.1z"/>
		<path fill="#545E7D" d="M196.9,477c0,0-43.6-2.1-44.9-84.7c0,0-47.6,114.4,8.4,120.1c4.7,0.5,9.3,1,13.9,1.9l20.7,4.1
			c3.3,0.7,6.5-1.9,6.5-5.3v-30.8C201.5,479.7,199.6,477.4,196.9,477z M187.3,497.2l-5.3,8.9l-26.9-23.9l35.8,9L187.3,497.2z"/>
		<path fill="#545E7D" d="M267.3,392.3c-1.3,82.6-44.9,84.7-44.9,84.7c-2.6,0.4-4.5,2.7-4.5,5.3v30.8c0,3.4,3.1,6,6.5,5.3l20.7-4.1
			c4.6-0.9,9.3-1.4,13.9-1.9C315,506.7,267.3,392.3,267.3,392.3z M237.4,506.1l-5.3-8.9l-3.6-6l35.8-9L237.4,506.1z"/>
	</g>
</g>
<g id="圖層_6">
	<g>
		<path fill="#DA4D3C" d="M586.6,485.7c0,39.9-32.3,72.2-72.2,72.2s-72.2-32.3-72.2-72.2c0-28.8,16.9-53.7,41.3-65.3
			c9.4-4.5,19.9-7,31-7C554.2,413.5,586.6,445.8,586.6,485.7z"/>
		<path fill="#545E7D" d="M545.2,420.5c-49.8,85.7,12.3,113.5,19.9,116.5c13.2-13.1,21.4-31.2,21.4-51.3
			C586.6,456.9,569.6,432.1,545.2,420.5z"/>
		<path fill="#545E7D" d="M442.1,485.7c0,20,8.1,38.1,21.3,51.2l2.8,0.4c0,0,70.2-25.7,17.2-116.9C459,432,442.1,456.9,442.1,485.7z
			"/>
		
			<ellipse transform="matrix(0.6227 -0.7825 0.7825 0.6227 -198.8856 552.0452)" fill="#FFFFFF" cx="473" cy="482.2" rx="13.8" ry="18.9"/>
		
			<ellipse transform="matrix(0.6227 0.7825 -0.7825 0.6227 586.9472 -252.711)" fill="#FFFFFF" cx="555.5" cy="482.2" rx="13.8" ry="18.9"/>
	</g>
</g>
</svg>
