<?xml version="1.0" encoding="utf-8"?>
<!-- Generator: Adobe Illustrator 18.0.0, SVG Export Plug-In . SVG Version: 6.00 Build 0)  -->
<!DOCTYPE svg PUBLIC "-//W3C//DTD SVG 1.1//EN" "http://www.w3.org/Graphics/SVG/1.1/DTD/svg11.dtd">
<svg version="1.1" xmlns="http://www.w3.org/2000/svg" xmlns:xlink="http://www.w3.org/1999/xlink" x="0px" y="0px"
	 viewBox="0 0 708.7 708.7" enable-background="new 0 0 708.7 708.7" xml:space="preserve">
<g id="圖層_1">
	<rect x="-48.2" y="-5.1" fill="#F49F50" stroke="#000000" stroke-miterlimit="10" width="756.9" height="737.3"/>
	<text transform="matrix(1 0 0 1 54.33 100.0219)" font-family="'AdobeFangsongStd-Regular-GBpc-EUC-H'" font-size="60">那該如何預防豬隊友？</text>
	<path fill="#FFFFFF" d="M-89.3,49.5"/>
	<path id="SVGID_x5F_1_x5F_" fill="none" d="M9.7,500.7h117.8"/>
	<text>	<textPath  xlink:href="#SVGID_x5F_1_x5F_" startOffset="63.4277%">
	</textPath>
</text>
	<text transform="matrix(1 0 0 1 58.3675 194.1968)" font-family="'AdobeFanHeitiStd-Bold-B5pc-H'" font-size="30">＊一開始就決定耍廢，如果你不在乎的話((喂!</text>
	<text transform="matrix(1 0 0 1 58.3677 240.1882)"><tspan x="0" y="0" font-family="'AdobeFanHeitiStd-Bold-B5pc-H'" font-size="30">＊一開始不要顯得你很想做報告，以免對方</tspan><tspan x="0" y="36" font-family="'AdobeFanHeitiStd-Bold-B5pc-H'" font-size="30">直接耍廢。</tspan><tspan x="0" y="72" font-family="'AdobeFanHeitiStd-Bold-B5pc-H'" font-size="30">＊一開始不要顯得你很想耍廢，組員會直接</tspan><tspan x="0" y="108" font-family="'AdobeFanHeitiStd-Bold-B5pc-H'" font-size="30">衝入耍廢區</tspan></text>
	<text transform="matrix(1 0 0 1 58.3677 383.308)"><tspan x="0" y="0" font-family="'AdobeFanHeitiStd-Bold-B5pc-H'" font-size="30">＊</tspan><tspan x="30" y="0" fill="#E60012" font-family="'AdobeFanHeitiStd-Bold-B5pc-H'" font-size="30">增加懲罰機制</tspan><tspan x="210" y="0" font-family="'AdobeFanHeitiStd-Bold-B5pc-H'" font-size="30">，降低組員耍廢的效益，例</tspan><tspan x="0" y="36" font-family="'AdobeFanHeitiStd-Bold-B5pc-H'" font-size="30">如分配的分數較低(</tspan><tspan x="249.7" y="36" fill="#727171" font-family="'AdobeFanHeitiStd-Bold-B5pc-H'" font-size="30" text-decoration=" line-through">去吃土吧</tspan><tspan x="369.7" y="36" font-family="'AdobeFanHeitiStd-Bold-B5pc-H'" font-size="30">)</tspan><tspan x="0" y="72" font-family="'AdobeFanHeitiStd-Bold-B5pc-H'" font-size="30">＊利用</tspan><tspan x="90" y="72" fill="#E60012" font-family="'AdobeFanHeitiStd-Bold-B5pc-H'" font-size="30">多局合作的未來效益</tspan><tspan x="360" y="72" font-family="'AdobeFanHeitiStd-Bold-B5pc-H'" font-size="30">增加合作動機，</tspan><tspan x="0" y="108" font-family="'AdobeFanHeitiStd-Bold-B5pc-H'" font-size="30">例如做得好就有好名聲</tspan><tspan x="300" y="108" fill="#727171" font-family="'AdobeFanHeitiStd-Bold-B5pc-H'" font-size="30" text-decoration=" line-through">，耍廢就幫他散播惡名</tspan></text>
</g>
<g id="圖層_2">
	<g>
		<path fill="#F3D372" d="M178.9,652.2c31.3-6,51.9-33.5,51.9-66.6c0-37.5-30.4-67.8-67.8-67.8s-67.8,30.4-67.8,67.8
			c0,33,23.6,60.5,54.9,66.6"/>
		<path fill="#E99828" d="M150.1,572.8c-1.8,0-3.2-1.4-3.2-3.2c0-5.3-4.3-9.7-9.7-9.7s-9.7,4.3-9.7,9.7c0,1.8-1.4,3.2-3.2,3.2
			s-3.2-1.4-3.2-3.2c0-8.9,7.2-16.1,16.1-16.1c8.9,0,16.1,7.2,16.1,16.1C153.3,571.3,151.9,572.8,150.1,572.8z"/>
		<circle fill="#FFFFFF" cx="188.8" cy="566.3" r="19.4"/>
		<g>
			<path fill="#ED7873" d="M150.1,608.3v39.9c0,7.7,6.3,13.9,13.9,13.9h1.2c7.7,0,13.9-6.3,13.9-13.9v-39.9H150.1z"/>
		</g>
		<circle fill="#AC7E65" cx="188.8" cy="566.3" r="9.7"/>
		<g>
			<path fill="#B73B2B" d="M150.1,608.3h-22.6c0,15.1,9.4,27.9,22.6,33.1V608.3z"/>
			<path fill="#B73B2B" d="M179.1,608.3v32.3c12.6-5.4,19.4-17.7,19.4-32.3H179.1z"/>
		</g>
		<path fill="#DA4D3C" d="M163,640.6c0,1.8,1.4,3.2,3.2,3.2s3.2-1.4,3.2-3.2c0-3-0.4-11.3-1-18.4c-0.6-7.2-1.1-11.4-1.8-13.9h-6.9
			c0,0.8,0.3,1.6,0.8,2.1C161.7,614.4,163,634.8,163,640.6z"/>
	</g>
	<g>
		<path fill="#F8D081" d="M633.3,582.4c0-6-4.3-12.2-9.5-14.3c-5.5-31.3-32.3-54.1-65.2-54.1s-59.7,22.8-65.2,54.1
			c-5.3,2.1-9.5,8.3-9.5,14.3c0,6.3,4.1,11.6,9.7,13.5c6.8,29.6,33.4,51.7,65.1,51.7c1.7,0,3.5-0.1,5.2-0.2c-0.2-1-0.4-1.9-0.4-3
			v-24.8c5.8,0,23.2,0.1,28.6,0v19c15.7-9.1,27.4-24.5,31.6-42.8C629.3,594,633.3,588.7,633.3,582.4z"/>
		<path fill="#AD7624" d="M521.9,603.1c-0.8,0-1.6-0.3-2.3-0.9c-1.2-1.2-1.2-3.3,0-4.5l16.4-16.4c1.2-1.2,3.3-1.2,4.5,0
			c1.2,1.2,1.2,3.3,0,4.5l-16.4,16.4C523.6,602.8,522.8,603.1,521.9,603.1z"/>
		<path fill="#AD7624" d="M538.3,603.1c-0.8,0-1.6-0.3-2.3-0.9l-16.4-16.4c-1.2-1.2-1.2-3.3,0-4.5s3.3-1.2,4.5,0l16.4,16.4
			c1.2,1.2,1.2,3.3,0,4.5C540,602.8,539.1,603.1,538.3,603.1z"/>
		<path fill="#AD7624" d="M582.4,603.1c-0.8,0-1.6-0.3-2.3-0.9c-1.2-1.2-1.2-3.3,0-4.5l16.4-16.4c1.2-1.2,3.3-1.2,4.5,0
			s1.2,3.3,0,4.5l-16.4,16.4C584.1,602.8,583.2,603.1,582.4,603.1z"/>
		<path fill="#AD7624" d="M598.8,603.1c-0.8,0-1.6-0.3-2.3-0.9l-16.4-16.4c-1.2-1.2-1.2-3.3,0-4.5s3.3-1.2,4.5,0l16.4,16.4
			c1.2,1.2,1.2,3.3,0,4.5C600.4,602.8,599.6,603.1,598.8,603.1z"/>
		<path fill="#985F24" d="M623.8,568.1L623.8,568.1c-5.5-31.3-32.8-55.1-65.8-55.1s-59.2,23.8-64.7,55.1c0,0,53.8,13.8,89.9-15
			c1.8-1.4,4.3-1.1,5.6,0.8C595.3,563.5,607.3,575.3,623.8,568.1z"/>
		<g>
			<path fill="#ED7873" d="M563.3,619.6v24.8c0,7,5.7,12.7,12.7,12.7h3.2c7,0,12.7-5.7,12.7-12.7v-24.8
				C586.5,619.7,569.1,619.6,563.3,619.6z"/>
		</g>
		<path fill="#DA4D3C" d="M577.8,644.4c-1.8,0-3.2-1.4-3.2-3.2v-0.5c0-8.2-0.2-13.2-0.7-15c-0.6-0.6-1-1.4-1-2.3
			c0-1.8,1.4-3.2,3.2-3.2c4.1,0,4.4,5.3,4.7,9.6c0.2,3.7,0.2,8.1,0.2,10.9v0.5C580.9,643,579.5,644.4,577.8,644.4z"/>
		<path fill="#C57F51" d="M595.2,622.8h-70c-1.8,0-3.2-1.4-3.2-3.2s1.4-3.2,3.2-3.2h70c1.8,0,3.2,1.4,3.2,3.2
			S596.9,622.8,595.2,622.8z"/>
	</g>
</g>
</svg>
